<svg xmlns="http://www.w3.org/2000/svg" width="313" height="37" viewBox="32.5 4 313 37"><path fill="#FFF" d="M255.69 32.572c-4.84 0-8.034-4.135-8.034-9.994 0-5.86 3.25-10.056 8.09-10.056s8.064 4.138 8.064 9.997c0 5.857-3.282 10.052-8.12 10.052m-.026-18.08c-3.366 0-5.844 3.14-5.844 8.026 0 4.89 2.557 8.085 5.95 8.085 3.366 0 5.87-3.14 5.87-8.026 0-4.89-2.588-8.084-5.976-8.084M280.356 32.27l-8.51-13.307c-.42-.665-1.144-1.943-1.394-2.443V32.27h-2.084V12.825h2.116l8.42 13.556c.418.665 1.143 1.94 1.393 2.442V12.826h2.084V32.27h-2.024zM287.78 32.27V12.826h2.17v17.468h9.626v1.976M304.194 12.826h2.162V32.27h-2.162zM323.877 32.27l-8.505-13.307c-.423-.665-1.143-1.943-1.392-2.443V32.27h-2.086V12.825h2.116l8.42 13.556c.42.665 1.145 1.94 1.395 2.442V12.826h2.085V32.27h-2.033zM331.305 32.27V12.826h11.768v1.97h-9.595v6.113h5.56v1.974h-5.56v7.41h10.014v1.976M91.423 16.39c-2.72 0-4.526 2.193-4.526 6.13s1.89 6.185 4.612 6.185c2.72 0 4.52-2.19 4.52-6.13.002-3.936-1.887-6.184-4.607-6.184m.028 16.168c-5.08 0-8.55-3.714-8.55-9.983 0-6.263 3.527-10.038 8.61-10.038 5.05 0 8.523 3.715 8.523 9.983 0 6.267-3.53 10.038-8.582 10.038M112.104 16.613h-4.47v4.993h4.527c1.804 0 2.777-.833 2.777-2.526 0-1.692-1.113-2.467-2.833-2.467m-.193 8.766h-4.277v6.873h-3.886v-19.41h8.495c3.664 0 6.692 2.024 6.692 6.156 0 4.494-2.998 6.38-7.023 6.38M122.956 32.252v-19.41h13.49v3.8h-9.606v3.355h5.58v3.77h-5.58v4.684h10.024v3.802M153.6 32.252l-7.138-10.59c-.473-.72-1.11-1.692-1.36-2.19 0 .72.054 3.16.054 4.245v8.536h-3.828v-19.41h3.716l6.887 10.262c.474.72 1.11 1.693 1.36 2.19 0-.726-.053-3.16-.053-4.243V12.84h3.828v19.41H153.6v.002zM168.37 32.558c-2.636 0-4.997-1.14-6.52-2.688l1.44-1.61c1.472 1.415 3.166 2.33 5.166 2.33 2.583 0 4.193-1.273 4.193-3.326 0-1.805-1.084-2.828-4.638-4.104-4.19-1.498-5.612-2.857-5.612-5.657 0-3.11 2.444-4.965 6.082-4.965 2.613 0 4.28.774 5.917 2.082l-1.39 1.69c-1.415-1.166-2.722-1.804-4.666-1.804-2.663 0-3.776 1.33-3.776 2.856 0 1.61.725 2.523 4.61 3.91 4.305 1.553 5.638 2.996 5.638 5.878-.002 3.053-2.39 5.408-6.446 5.408M191.465 32.252v-9.148h-9.662v9.148h-2.165v-19.41h2.165v8.29h9.662v-8.29h2.166v19.41M199.2 12.843h2.166v19.41H199.2zM209.11 14.81v6.436h5.328v1.97h-5.328v9.036h-2.167v-19.41h11.413v1.968M230.126 14.81v17.442h-2.165V14.81h-5.716v-1.968h13.603v1.968"/><path fill="#BC1C29" d="M44.25 20.64L37.75 23c.086 1.04.264 2.067.515 3.075l6.17-2.248c-.2-1.038-.27-2.112-.186-3.188M72.95 13.466c-.45-.932-.974-1.835-1.583-2.688l-6.495 2.362c.756.774 1.39 1.64 1.91 2.57l6.17-2.244z"/><path fill="#E22434" d="M58.66 11.63c1.352.63 2.524 1.487 3.51 2.497l6.495-2.364c-1.8-2.52-4.25-4.626-7.25-6.023-9.283-4.326-20.362-.3-24.686 8.973-1.405 2.997-1.926 6.186-1.684 9.27l6.498-2.36c.105-1.402.45-2.812 1.082-4.164 2.81-6.024 10.007-8.64 16.035-5.83M38.67 25.93l-6.17 2.243c.568 2.244 1.552 4.382 2.902 6.28l6.482-2.354c-1.663-1.71-2.772-3.866-3.214-6.17"/><path fill="#E22434" d="M65.587 23.482c-.104 1.402-.455 2.813-1.088 4.165-2.813 6.024-10.008 8.64-16.04 5.83-1.352-.633-2.533-1.485-3.516-2.493l-6.48 2.356c1.796 2.52 4.245 4.626 7.246 6.027 9.283 4.323 20.36.298 24.69-8.976 1.4-2.997 1.917-6.184 1.67-9.267l-6.483 2.36z"/><path fill="#E22434" d="M67.186 15.56l-6.17 2.25c1.147 2.046 1.687 4.41 1.513 6.785l6.48-2.356c-.19-2.324-.81-4.592-1.824-6.68"/><path fill="#97101B" d="M44.223 21.943c-.016-.433-.01-.868.026-1.304L37.75 23c.032.416.086.827.148 1.238l6.325-2.295zM72.013 11.76c-.206-.33-.418-.66-.645-.98l-6.493 2.36c.285.293.55.605.8.92l6.338-2.3z"/><path fill="#BC1C29" d="M38.466 33.34c.5.7 1.052 1.374 1.65 2.003l7.055-2.568c-.825-.518-1.57-1.117-2.227-1.788l-6.477 2.354zM72.07 21.127l-6.482 2.358c-.068.932-.25 1.865-.548 2.782l7.05-2.57c.055-.86.045-1.72-.02-2.57"/><path fill="#FFF" d="M241.097 14.457c-.067.164-.16.304-.28.422-.12.114-.26.205-.422.27-.163.064-.34.095-.533.095-.188 0-.363-.03-.526-.095-.162-.065-.302-.155-.425-.27-.115-.12-.21-.26-.275-.423-.07-.163-.105-.344-.105-.544 0-.198.034-.38.105-.542.064-.164.16-.304.276-.42.123-.12.264-.207.426-.272.163-.063.34-.095.526-.095.194 0 .37.032.533.095.16.065.3.154.423.27.12.118.212.258.28.423.066.163.1.345.1.543 0 .2-.034.38-.1.544m-.17-1.015c-.06-.146-.14-.267-.244-.367-.1-.104-.224-.183-.365-.24-.14-.057-.292-.087-.458-.087-.158 0-.31.03-.452.086-.14.058-.26.137-.36.24-.106.1-.19.223-.247.368-.06.143-.09.297-.09.47 0 .172.03.332.09.474.058.143.14.265.246.368.102.102.224.18.36.236.144.06.293.085.452.085.164 0 .318-.027.457-.085.142-.057.265-.135.364-.236.104-.103.185-.225.244-.368.062-.143.09-.3.09-.473s-.03-.33-.09-.47m-.566.408c-.06.072-.142.12-.245.145l.33.63h-.23l-.316-.617h-.317v.616h-.194v-1.472h.597c.135 0 .245.036.335.104.093.07.14.176.14.32-.006.11-.038.202-.1.275m-.177-.46c-.047-.042-.12-.063-.213-.063h-.393v.5h.368c.208 0 .31-.085.31-.25.003-.084-.025-.148-.073-.187"/></svg>